<svg xmlns="http://www.w3.org/2000/svg" viewBox="0 0 64 72" fill="none">
  <!-- Hungarian shield form — geometric placeholder until real crest file provided -->
  <!-- Replace with actual coat of arms file from Sylvia -->

  <!-- Shield outline -->
  <path d="M4 4 H60 V44 C60 58 32 68 32 68 C32 68 4 58 4 44 Z"
        fill="#1B2A4A" stroke="#C5A55A" stroke-width="1.5"/>

  <!-- Inner shield -->
  <path d="M10 10 H54 V43 C54 54.5 32 62 32 62 C32 62 10 54.5 10 43 Z"
        fill="none" stroke="#C5A55A" stroke-width="0.75" opacity="0.5"/>

  <!-- Crown top — simplified -->
  <rect x="22" y="1" width="20" height="5" rx="1" fill="#C5A55A" opacity="0.9"/>
  <circle cx="32" cy="1.5" r="2" fill="#D4AF37"/>
  <circle cx="23" cy="2" r="1.5" fill="#C5A55A"/>
  <circle cx="41" cy="2" r="1.5" fill="#C5A55A"/>

  <!-- Horizontal divider — Hungarian tricolor bands reference -->
  <line x1="10" y1="26" x2="54" y2="26" stroke="#C5A55A" stroke-width="0.5" opacity="0.4"/>
  <line x1="10" y1="38" x2="54" y2="38" stroke="#C5A55A" stroke-width="0.5" opacity="0.4"/>

  <!-- Central motif — stylised apostolic cross suggestion -->
  <line x1="32" y1="14" x2="32" y2="48" stroke="#C5A55A" stroke-width="1.5" opacity="0.7"/>
  <line x1="24" y1="20" x2="40" y2="20" stroke="#C5A55A" stroke-width="1.5" opacity="0.7"/>
  <line x1="26" y1="27" x2="38" y2="27" stroke="#C5A55A" stroke-width="1" opacity="0.5"/>
</svg>
